# Blender v3.0.0 OBJ File: 'belt.blend'
# www.blender.org
o Cube_Cube.001
v -0.500000 -0.500000 -0.100000
v -0.500000 -0.500000 0.100000
v -0.500000 0.500000 -0.100000
v -0.500000 0.500000 0.100000
v 0.500000 -0.500000 -0.100000
v 0.500000 -0.500000 0.100000
v 0.500000 0.500000 -0.100000
v 0.500000 0.500000 0.100000
v 0.400000 0.500000 -0.100000
v 0.300000 0.500000 -0.100000
v 0.200000 0.500000 -0.100000
v 0.100000 0.500000 -0.100000
v 0.000000 0.500000 -0.100000
v -0.100000 0.500000 -0.100000
v -0.200000 0.500000 -0.100000
v -0.300000 0.500000 -0.100000
v -0.400000 0.500000 -0.100000
v -0.400000 0.500000 0.100000
v 0.400000 0.500000 0.100000
v -0.400000 -0.500000 -0.100000
v -0.300000 -0.500000 -0.100000
v -0.200000 -0.500000 -0.100000
v -0.100000 -0.500000 -0.100000
v 0.000000 -0.500000 -0.100000
v 0.100000 -0.500000 -0.100000
v 0.200000 -0.500000 -0.100000
v 0.300000 -0.500000 -0.100000
v 0.400000 -0.500000 -0.100000
v 0.400000 -0.500000 0.100000
v -0.400000 -0.500000 0.100000
v -0.500000 -0.500000 0.000000
v -0.500000 0.500000 0.000000
v 0.500000 0.500000 0.000000
v 0.500000 -0.500000 0.000000
v 0.400000 -0.500000 0.000000
v 0.300000 -0.500000 0.000000
v 0.200000 -0.500000 0.000000
v 0.100000 -0.500000 0.000000
v 0.000000 -0.500000 0.000000
v -0.100000 -0.500000 0.000000
v -0.200000 -0.500000 0.000000
v -0.300000 -0.500000 0.000000
v -0.400000 -0.500000 0.000000
v -0.400000 0.500000 0.000000
v -0.300000 0.500000 0.000000
v -0.200000 0.500000 0.000000
v -0.100000 0.500000 0.000000
v 0.000000 0.500000 0.000000
v 0.100000 0.500000 0.000000
v 0.200000 0.500000 0.000000
v 0.300000 0.500000 0.000000
v 0.400000 0.500000 0.000000
vn -1.0000 0.0000 0.0000
vn 0.0000 1.0000 0.0000
vn 1.0000 0.0000 0.0000
vn 0.0000 -1.0000 0.0000
vn 0.0000 0.0000 -1.0000
vn 0.0000 0.0000 1.0000
s off
f 2//1 32//1 31//1
f 19//2 33//2 52//2
f 8//3 34//3 33//3
f 30//4 31//4 43//4
f 7//5 28//5 9//5
f 4//6 30//6 18//6
f 19//6 6//6 8//6
f 17//5 1//5 3//5
f 16//5 20//5 17//5
f 15//5 21//5 16//5
f 14//5 22//5 15//5
f 13//5 23//5 14//5
f 12//5 24//5 13//5
f 11//5 25//5 12//5
f 10//5 26//5 11//5
f 9//5 27//5 10//5
f 6//4 35//4 34//4
f 4//2 44//2 32//2
f 29//1 52//1 35//1
f 30//3 44//3 18//3
f 51//2 9//2 10//2
f 50//2 10//2 11//2
f 49//2 11//2 12//2
f 48//2 12//2 13//2
f 47//2 13//2 14//2
f 46//2 14//2 15//2
f 45//2 15//2 16//2
f 44//2 16//2 17//2
f 32//2 17//2 3//2
f 42//4 20//4 21//4
f 41//4 21//4 22//4
f 40//4 22//4 23//4
f 39//4 23//4 24//4
f 38//4 24//4 25//4
f 37//4 25//4 26//4
f 36//4 26//4 27//4
f 35//4 27//4 28//4
f 34//4 28//4 5//4
f 43//4 1//4 20//4
f 33//3 5//3 7//3
f 52//2 7//2 9//2
f 31//1 3//1 1//1
f 45//6 43//6 42//6
f 2//1 4//1 32//1
f 19//2 8//2 33//2
f 8//3 6//3 34//3
f 30//4 2//4 31//4
f 7//5 5//5 28//5
f 4//6 2//6 30//6
f 19//6 29//6 6//6
f 17//5 20//5 1//5
f 16//5 21//5 20//5
f 15//5 22//5 21//5
f 14//5 23//5 22//5
f 13//5 24//5 23//5
f 12//5 25//5 24//5
f 11//5 26//5 25//5
f 10//5 27//5 26//5
f 9//5 28//5 27//5
f 6//4 29//4 35//4
f 4//2 18//2 44//2
f 29//1 19//1 52//1
f 30//3 43//3 44//3
f 51//2 52//2 9//2
f 50//2 51//2 10//2
f 49//2 50//2 11//2
f 48//2 49//2 12//2
f 47//2 48//2 13//2
f 46//2 47//2 14//2
f 45//2 46//2 15//2
f 44//2 45//2 16//2
f 32//2 44//2 17//2
f 42//4 43//4 20//4
f 41//4 42//4 21//4
f 40//4 41//4 22//4
f 39//4 40//4 23//4
f 38//4 39//4 24//4
f 37//4 38//4 25//4
f 36//4 37//4 26//4
f 35//4 36//4 27//4
f 34//4 35//4 28//4
f 43//4 31//4 1//4
f 33//3 34//3 5//3
f 52//2 33//2 7//2
f 31//1 32//1 3//1
f 35//6 52//6 51//6
f 50//6 49//6 37//6
f 49//6 48//6 38//6
f 50//6 37//6 36//6
f 35//6 51//6 36//6
f 51//6 50//6 36//6
f 38//6 37//6 49//6
f 48//6 47//6 39//6
f 47//6 46//6 40//6
f 48//6 39//6 38//6
f 40//6 39//6 47//6
f 46//6 45//6 42//6
f 45//6 44//6 43//6
f 42//6 41//6 46//6
f 41//6 40//6 46//6
o Cylinder
v 0.000000 -0.200000 -0.050000
v 0.000000 -0.200000 0.050000
v -0.173205 0.100000 -0.050000
v -0.173205 0.100000 0.050000
v 0.173205 0.100000 -0.050000
v 0.173205 0.100000 0.050000
vn -0.8660 -0.5000 0.0000
vn 0.0000 1.0000 0.0000
vn 0.0000 0.0000 1.0000
vn 0.8660 -0.5000 0.0000
vn 0.0000 0.0000 -1.0000
s off
f 54//7 55//7 53//7
f 56//8 57//8 55//8
f 56//9 54//9 58//9
f 58//10 53//10 57//10
f 53//11 55//11 57//11
f 54//7 56//7 55//7
f 56//8 58//8 57//8
f 58//10 54//10 53//10
