# Blender v3.0.0 OBJ File: 'splitter.blend'
# www.blender.org
o Cube_Cube.002
v 0.300000 0.300000 0.050000
v 0.300000 0.200000 0.050000
v 0.300000 0.100000 0.050000
v 0.300000 0.000000 0.050000
v 0.300000 -0.100000 0.050000
v 0.300000 -0.200000 0.050000
v 0.300000 -0.300000 0.050000
v 0.200000 0.300000 0.050000
v 0.200000 0.200000 0.050000
v 0.200000 0.100000 0.050000
v 0.200000 0.000000 0.050000
v 0.200000 -0.100000 0.050000
v 0.200000 -0.200000 0.050000
v 0.200000 -0.300000 0.050000
v 0.100000 0.300000 0.050000
v 0.100000 0.200000 0.050000
v 0.100000 0.100000 0.050000
v 0.100000 0.000000 0.050000
v 0.100000 -0.100000 0.050000
v 0.100000 -0.200000 0.050000
v 0.100000 -0.300000 0.050000
v 0.000000 0.300000 0.050000
v 0.000000 0.200000 0.050000
v 0.000000 0.100000 0.050000
v 0.000000 0.000000 0.050000
v 0.000000 -0.100000 0.050000
v 0.000000 -0.200000 0.050000
v 0.000000 -0.300000 0.050000
v -0.100000 0.300000 0.050000
v -0.100000 0.200000 0.050000
v -0.100000 0.100000 0.050000
v -0.100000 0.000000 0.050000
v -0.100000 -0.100000 0.050000
v -0.100000 -0.200000 0.050000
v -0.100000 -0.300000 0.050000
v -0.200000 0.300000 0.050000
v -0.200000 0.200000 0.050000
v -0.200000 0.100000 0.050000
v -0.200000 0.000000 0.050000
v -0.200000 -0.100000 0.050000
v -0.200000 -0.200000 0.050000
v -0.200000 -0.300000 0.050000
v -0.300000 0.300000 0.050000
v -0.300000 0.200000 0.050000
v -0.300000 0.100000 0.050000
v -0.300000 0.000000 0.050000
v -0.300000 -0.100000 0.050000
v -0.300000 -0.200000 0.050000
v -0.300000 -0.300000 0.050000
v -0.300000 0.300000 -0.050000
v -0.300000 0.200000 -0.050000
v -0.300000 0.100000 -0.050000
v -0.300000 0.000000 -0.050000
v -0.300000 -0.100000 -0.050000
v -0.300000 -0.200000 -0.050000
v -0.300000 -0.300000 -0.050000
v -0.200000 0.300000 -0.050000
v -0.200000 0.200000 -0.050000
v -0.200000 0.100000 -0.050000
v -0.200000 0.000000 -0.050000
v -0.200000 -0.100000 -0.050000
v -0.200000 -0.200000 -0.050000
v -0.200000 -0.300000 -0.050000
v -0.100000 0.300000 -0.050000
v -0.100000 0.200000 -0.050000
v -0.100000 0.100000 -0.050000
v -0.100000 0.000000 -0.050000
v -0.100000 -0.100000 -0.050000
v -0.100000 -0.200000 -0.050000
v -0.100000 -0.300000 -0.050000
v 0.000000 0.300000 -0.050000
v 0.000000 0.200000 -0.050000
v 0.000000 0.100000 -0.050000
v 0.000000 0.000000 -0.050000
v 0.000000 -0.100000 -0.050000
v 0.000000 -0.200000 -0.050000
v 0.000000 -0.300000 -0.050000
v 0.100000 0.300000 -0.050000
v 0.100000 0.200000 -0.050000
v 0.100000 0.100000 -0.050000
v 0.100000 0.000000 -0.050000
v 0.100000 -0.100000 -0.050000
v 0.100000 -0.200000 -0.050000
v 0.100000 -0.300000 -0.050000
v 0.200000 0.300000 -0.050000
v 0.200000 0.200000 -0.050000
v 0.200000 0.100000 -0.050000
v 0.200000 0.000000 -0.050000
v 0.200000 -0.100000 -0.050000
v 0.200000 -0.200000 -0.050000
v 0.200000 -0.300000 -0.050000
v 0.300000 0.300000 -0.050000
v 0.300000 0.200000 -0.050000
v 0.300000 0.100000 -0.050000
v 0.300000 0.000000 -0.050000
v 0.300000 -0.100000 -0.050000
v 0.300000 -0.200000 -0.050000
v 0.300000 -0.300000 -0.050000
vn 0.0000 0.0000 -1.0000
vn 0.0000 0.0000 1.0000
vn 1.0000 0.0000 0.0000
vn 0.0000 1.0000 0.0000
vn -1.0000 0.0000 0.0000
vn 0.0000 -1.0000 0.0000
s off
f 92//1 86//1 85//1
f 93//1 87//1 86//1
f 94//1 88//1 87//1
f 95//1 89//1 88//1
f 96//1 90//1 89//1
f 97//1 91//1 90//1
f 85//1 79//1 78//1
f 86//1 80//1 79//1
f 87//1 81//1 80//1
f 88//1 82//1 81//1
f 89//1 83//1 82//1
f 90//1 84//1 83//1
f 78//1 72//1 71//1
f 79//1 73//1 72//1
f 80//1 74//1 73//1
f 81//1 75//1 74//1
f 82//1 76//1 75//1
f 83//1 77//1 76//1
f 71//1 65//1 64//1
f 72//1 66//1 65//1
f 73//1 67//1 66//1
f 74//1 68//1 67//1
f 75//1 69//1 68//1
f 76//1 70//1 69//1
f 64//1 58//1 57//1
f 65//1 59//1 58//1
f 66//1 60//1 59//1
f 67//1 61//1 60//1
f 68//1 62//1 61//1
f 69//1 63//1 62//1
f 57//1 51//1 50//1
f 58//1 52//1 51//1
f 59//1 53//1 52//1
f 60//1 54//1 53//1
f 61//1 55//1 54//1
f 62//1 56//1 55//1
f 43//2 37//2 36//2
f 44//2 38//2 37//2
f 45//2 39//2 38//2
f 46//2 40//2 39//2
f 47//2 41//2 40//2
f 48//2 42//2 41//2
f 36//2 30//2 29//2
f 37//2 31//2 30//2
f 38//2 32//2 31//2
f 39//2 33//2 32//2
f 40//2 34//2 33//2
f 41//2 35//2 34//2
f 29//2 23//2 22//2
f 30//2 24//2 23//2
f 31//2 25//2 24//2
f 32//2 26//2 25//2
f 33//2 27//2 26//2
f 34//2 28//2 27//2
f 22//2 16//2 15//2
f 23//2 17//2 16//2
f 24//2 18//2 17//2
f 25//2 19//2 18//2
f 26//2 20//2 19//2
f 27//2 21//2 20//2
f 15//2 9//2 8//2
f 16//2 10//2 9//2
f 17//2 11//2 10//2
f 18//2 12//2 11//2
f 19//2 13//2 12//2
f 20//2 14//2 13//2
f 8//2 2//2 1//2
f 9//2 3//2 2//2
f 10//2 4//2 3//2
f 11//2 5//2 4//2
f 12//2 6//2 5//2
f 13//2 7//2 6//2
f 96//3 95//3 4//3
f 57//4 43//4 36//4
f 48//5 47//5 54//5
f 42//6 49//6 56//6
f 92//1 93//1 86//1
f 93//1 94//1 87//1
f 94//1 95//1 88//1
f 95//1 96//1 89//1
f 96//1 97//1 90//1
f 97//1 98//1 91//1
f 85//1 86//1 79//1
f 86//1 87//1 80//1
f 87//1 88//1 81//1
f 88//1 89//1 82//1
f 89//1 90//1 83//1
f 90//1 91//1 84//1
f 78//1 79//1 72//1
f 79//1 80//1 73//1
f 80//1 81//1 74//1
f 81//1 82//1 75//1
f 82//1 83//1 76//1
f 83//1 84//1 77//1
f 71//1 72//1 65//1
f 72//1 73//1 66//1
f 73//1 74//1 67//1
f 74//1 75//1 68//1
f 75//1 76//1 69//1
f 76//1 77//1 70//1
f 64//1 65//1 58//1
f 65//1 66//1 59//1
f 66//1 67//1 60//1
f 67//1 68//1 61//1
f 68//1 69//1 62//1
f 69//1 70//1 63//1
f 57//1 58//1 51//1
f 58//1 59//1 52//1
f 59//1 60//1 53//1
f 60//1 61//1 54//1
f 61//1 62//1 55//1
f 62//1 63//1 56//1
f 43//2 44//2 37//2
f 44//2 45//2 38//2
f 45//2 46//2 39//2
f 46//2 47//2 40//2
f 47//2 48//2 41//2
f 48//2 49//2 42//2
f 36//2 37//2 30//2
f 37//2 38//2 31//2
f 38//2 39//2 32//2
f 39//2 40//2 33//2
f 40//2 41//2 34//2
f 41//2 42//2 35//2
f 29//2 30//2 23//2
f 30//2 31//2 24//2
f 31//2 32//2 25//2
f 32//2 33//2 26//2
f 33//2 34//2 27//2
f 34//2 35//2 28//2
f 22//2 23//2 16//2
f 23//2 24//2 17//2
f 24//2 25//2 18//2
f 25//2 26//2 19//2
f 26//2 27//2 20//2
f 27//2 28//2 21//2
f 15//2 16//2 9//2
f 16//2 17//2 10//2
f 17//2 18//2 11//2
f 18//2 19//2 12//2
f 19//2 20//2 13//2
f 20//2 21//2 14//2
f 8//2 9//2 2//2
f 9//2 10//2 3//2
f 10//2 11//2 4//2
f 11//2 12//2 5//2
f 12//2 13//2 6//2
f 13//2 14//2 7//2
f 1//3 2//3 92//3
f 2//3 3//3 93//3
f 92//3 2//3 93//3
f 4//3 5//3 96//3
f 5//3 6//3 97//3
f 97//3 6//3 98//3
f 6//3 7//3 98//3
f 3//3 4//3 94//3
f 93//3 3//3 94//3
f 95//3 94//3 4//3
f 97//3 96//3 5//3
f 1//4 92//4 85//4
f 78//4 71//4 15//4
f 71//4 64//4 22//4
f 78//4 15//4 8//4
f 1//4 85//4 8//4
f 85//4 78//4 8//4
f 22//4 15//4 71//4
f 64//4 57//4 36//4
f 57//4 50//4 43//4
f 36//4 29//4 64//4
f 29//4 22//4 64//4
f 45//5 44//5 52//5
f 44//5 43//5 51//5
f 52//5 44//5 51//5
f 43//5 50//5 51//5
f 52//5 53//5 45//5
f 53//5 54//5 46//5
f 45//5 53//5 46//5
f 47//5 46//5 54//5
f 54//5 55//5 48//5
f 55//5 56//5 49//5
f 49//5 48//5 55//5
f 91//6 98//6 7//6
f 14//6 21//6 84//6
f 21//6 28//6 84//6
f 91//6 7//6 14//6
f 70//6 77//6 28//6
f 77//6 84//6 28//6
f 84//6 91//6 14//6
f 28//6 35//6 70//6
f 35//6 42//6 70//6
f 56//6 63//6 42//6
f 63//6 70//6 42//6
o Cube.001_Cube.003
v -0.500000 0.300000 -0.050000
v -0.500000 0.200000 -0.050000
v -0.500000 0.100000 -0.050000
v -0.500000 0.000000 -0.050000
v -0.500000 -0.100000 -0.050000
v -0.500000 -0.200000 -0.050000
v -0.500000 -0.300000 -0.050000
v -0.500000 -0.300000 0.050000
v -0.500000 -0.200000 0.050000
v -0.500000 -0.100000 0.050000
v -0.500000 0.000000 0.050000
v -0.500000 0.100000 0.050000
v -0.500000 0.200000 0.050000
v -0.500000 0.300000 0.050000
v -0.300000 0.300000 0.050000
v -0.300000 0.200000 0.050000
v -0.300000 0.100000 0.050000
v -0.300000 0.000000 0.050000
v -0.300000 -0.100000 0.050000
v -0.300000 -0.200000 0.050000
v -0.300000 -0.300000 0.050000
v -0.400000 0.300000 0.050000
v -0.400000 0.200000 0.050000
v -0.400000 0.100000 0.050000
v -0.400000 0.000000 0.050000
v -0.400000 -0.100000 0.050000
v -0.400000 -0.200000 0.050000
v -0.400000 -0.300000 0.050000
v -0.400000 0.300000 -0.050000
v -0.400000 0.200000 -0.050000
v -0.400000 0.100000 -0.050000
v -0.400000 0.000000 -0.050000
v -0.400000 -0.100000 -0.050000
v -0.400000 -0.200000 -0.050000
v -0.400000 -0.300000 -0.050000
v -0.300000 0.300000 -0.050000
v -0.300000 0.200000 -0.050000
v -0.300000 0.100000 -0.050000
v -0.300000 0.000000 -0.050000
v -0.300000 -0.100000 -0.050000
v -0.300000 -0.200000 -0.050000
v -0.300000 -0.300000 -0.050000
vn 0.0000 0.0000 -1.0000
vn 0.0000 0.0000 1.0000
vn -1.0000 0.0000 0.0000
vn 1.0000 0.0000 0.0000
vn 0.0000 1.0000 0.0000
vn 0.0000 -1.0000 0.0000
s off
f 134//7 128//7 127//7
f 135//7 129//7 128//7
f 136//7 130//7 129//7
f 137//7 131//7 130//7
f 138//7 132//7 131//7
f 139//7 133//7 132//7
f 127//7 100//7 99//7
f 128//7 101//7 100//7
f 129//7 102//7 101//7
f 130//7 103//7 102//7
f 131//7 104//7 103//7
f 132//7 105//7 104//7
f 120//8 114//8 113//8
f 121//8 115//8 114//8
f 122//8 116//8 115//8
f 123//8 117//8 116//8
f 124//8 118//8 117//8
f 125//8 119//8 118//8
f 112//8 121//8 120//8
f 111//8 122//8 121//8
f 110//8 123//8 122//8
f 109//8 124//8 123//8
f 108//8 125//8 124//8
f 107//8 126//8 125//8
f 106//9 104//9 105//9
f 107//9 103//9 104//9
f 108//9 102//9 103//9
f 109//9 101//9 102//9
f 110//9 100//9 101//9
f 111//9 99//9 100//9
f 138//10 137//10 116//10
f 127//11 112//11 120//11
f 126//12 105//12 133//12
f 134//7 135//7 128//7
f 135//7 136//7 129//7
f 136//7 137//7 130//7
f 137//7 138//7 131//7
f 138//7 139//7 132//7
f 139//7 140//7 133//7
f 127//7 128//7 100//7
f 128//7 129//7 101//7
f 129//7 130//7 102//7
f 130//7 131//7 103//7
f 131//7 132//7 104//7
f 132//7 133//7 105//7
f 120//8 121//8 114//8
f 121//8 122//8 115//8
f 122//8 123//8 116//8
f 123//8 124//8 117//8
f 124//8 125//8 118//8
f 125//8 126//8 119//8
f 112//8 111//8 121//8
f 111//8 110//8 122//8
f 110//8 109//8 123//8
f 109//8 108//8 124//8
f 108//8 107//8 125//8
f 107//8 106//8 126//8
f 106//9 107//9 104//9
f 107//9 108//9 103//9
f 108//9 109//9 102//9
f 109//9 110//9 101//9
f 110//9 111//9 100//9
f 111//9 112//9 99//9
f 113//10 114//10 134//10
f 114//10 115//10 135//10
f 134//10 114//10 135//10
f 116//10 117//10 138//10
f 117//10 118//10 139//10
f 139//10 118//10 140//10
f 118//10 119//10 140//10
f 115//10 116//10 136//10
f 135//10 115//10 136//10
f 137//10 136//10 116//10
f 139//10 138//10 117//10
f 113//11 134//11 127//11
f 127//11 99//11 112//11
f 120//11 113//11 127//11
f 133//12 140//12 119//12
f 126//12 106//12 105//12
f 133//12 119//12 126//12
o Cube.002_Cube.004
v 0.300000 0.500000 -0.050000
v 0.200000 0.500000 -0.050000
v 0.100000 0.500000 -0.050000
v 0.000000 0.500000 -0.050000
v -0.100000 0.500000 -0.050000
v -0.200000 0.500000 -0.050000
v -0.300000 0.500000 -0.050000
v -0.300000 0.500000 0.050000
v -0.200000 0.500000 0.050000
v -0.100000 0.500000 0.050000
v 0.000000 0.500000 0.050000
v 0.100000 0.500000 0.050000
v 0.200000 0.500000 0.050000
v 0.300000 0.500000 0.050000
v 0.300000 0.400000 0.050000
v 0.300000 0.300000 0.050000
v 0.200000 0.400000 0.050000
v 0.200000 0.300000 0.050000
v 0.100000 0.400000 0.050000
v 0.100000 0.300000 0.050000
v 0.000000 0.400000 0.050000
v 0.000000 0.300000 0.050000
v -0.100000 0.400000 0.050000
v -0.100000 0.300000 0.050000
v -0.200000 0.400000 0.050000
v -0.200000 0.300000 0.050000
v -0.300000 0.400000 0.050000
v -0.300000 0.300000 0.050000
v -0.300000 0.400000 -0.050000
v -0.300000 0.300000 -0.050000
v -0.200000 0.400000 -0.050000
v -0.200000 0.300000 -0.050000
v -0.100000 0.400000 -0.050000
v -0.100000 0.300000 -0.050000
v 0.000000 0.400000 -0.050000
v 0.000000 0.300000 -0.050000
v 0.100000 0.400000 -0.050000
v 0.100000 0.300000 -0.050000
v 0.200000 0.400000 -0.050000
v 0.200000 0.300000 -0.050000
v 0.300000 0.400000 -0.050000
v 0.300000 0.300000 -0.050000
vn 0.0000 1.0000 0.0000
vn 0.0000 0.0000 -1.0000
vn 0.0000 0.0000 1.0000
vn -1.0000 0.0000 0.0000
vn 1.0000 0.0000 0.0000
vn 0.0000 -1.0000 0.0000
s off
f 148//13 146//13 147//13
f 149//13 145//13 146//13
f 150//13 144//13 145//13
f 151//13 143//13 144//13
f 152//13 142//13 143//13
f 153//13 141//13 142//13
f 141//14 179//14 142//14
f 181//14 180//14 179//14
f 142//14 177//14 143//14
f 179//14 178//14 177//14
f 143//14 175//14 144//14
f 177//14 176//14 175//14
f 144//14 173//14 145//14
f 175//14 174//14 173//14
f 145//14 171//14 146//14
f 173//14 172//14 171//14
f 146//14 169//14 147//14
f 171//14 170//14 169//14
f 148//15 165//15 149//15
f 167//15 166//15 165//15
f 149//15 163//15 150//15
f 165//15 164//15 163//15
f 150//15 161//15 151//15
f 163//15 162//15 161//15
f 151//15 159//15 152//15
f 161//15 160//15 159//15
f 152//15 157//15 153//15
f 159//15 158//15 157//15
f 153//15 155//15 154//15
f 157//15 156//15 155//15
f 169//16 168//16 167//16
f 155//17 182//17 181//17
f 166//18 168//18 170//18
f 148//13 149//13 146//13
f 149//13 150//13 145//13
f 150//13 151//13 144//13
f 151//13 152//13 143//13
f 152//13 153//13 142//13
f 153//13 154//13 141//13
f 141//14 181//14 179//14
f 181//14 182//14 180//14
f 142//14 179//14 177//14
f 179//14 180//14 178//14
f 143//14 177//14 175//14
f 177//14 178//14 176//14
f 144//14 175//14 173//14
f 175//14 176//14 174//14
f 145//14 173//14 171//14
f 173//14 174//14 172//14
f 146//14 171//14 169//14
f 171//14 172//14 170//14
f 148//15 167//15 165//15
f 167//15 168//15 166//15
f 149//15 165//15 163//15
f 165//15 166//15 164//15
f 150//15 163//15 161//15
f 163//15 164//15 162//15
f 151//15 161//15 159//15
f 161//15 162//15 160//15
f 152//15 159//15 157//15
f 159//15 160//15 158//15
f 153//15 157//15 155//15
f 157//15 158//15 156//15
f 148//16 147//16 169//16
f 169//16 170//16 168//16
f 167//16 148//16 169//16
f 181//17 141//17 154//17
f 155//17 156//17 182//17
f 181//17 154//17 155//17
f 180//18 182//18 156//18
f 158//18 160//18 178//18
f 160//18 162//18 178//18
f 180//18 156//18 158//18
f 174//18 176//18 162//18
f 176//18 178//18 162//18
f 178//18 180//18 158//18
f 162//18 164//18 174//18
f 164//18 166//18 174//18
f 170//18 172//18 166//18
f 172//18 174//18 166//18
o Cube.003_Cube.005
v 0.500000 -0.300000 -0.050000
v 0.500000 -0.200000 -0.050000
v 0.500000 -0.100000 -0.050000
v 0.500000 0.000000 -0.050000
v 0.500000 0.100000 -0.050000
v 0.500000 0.200000 -0.050000
v 0.500000 0.300000 -0.050000
v 0.500000 0.300000 0.050000
v 0.500000 0.200000 0.050000
v 0.500000 0.100000 0.050000
v 0.500000 0.000000 0.050000
v 0.500000 -0.100000 0.050000
v 0.500000 -0.200000 0.050000
v 0.500000 -0.300000 0.050000
v 0.400000 0.300000 0.050000
v 0.400000 0.200000 0.050000
v 0.400000 0.100000 0.050000
v 0.400000 0.000000 0.050000
v 0.400000 -0.100000 0.050000
v 0.400000 -0.200000 0.050000
v 0.400000 -0.300000 0.050000
v 0.300000 0.300000 0.050000
v 0.300000 0.200000 0.050000
v 0.300000 0.100000 0.050000
v 0.300000 0.000000 0.050000
v 0.300000 -0.100000 0.050000
v 0.300000 -0.200000 0.050000
v 0.300000 -0.300000 0.050000
v 0.300000 0.300000 -0.050000
v 0.300000 0.200000 -0.050000
v 0.300000 0.100000 -0.050000
v 0.300000 0.000000 -0.050000
v 0.300000 -0.100000 -0.050000
v 0.300000 -0.200000 -0.050000
v 0.300000 -0.300000 -0.050000
v 0.400000 0.300000 -0.050000
v 0.400000 0.200000 -0.050000
v 0.400000 0.100000 -0.050000
v 0.400000 0.000000 -0.050000
v 0.400000 -0.100000 -0.050000
v 0.400000 -0.200000 -0.050000
v 0.400000 -0.300000 -0.050000
vn 0.0000 0.0000 -1.0000
vn 0.0000 0.0000 1.0000
vn 1.0000 0.0000 0.0000
vn 0.0000 -1.0000 0.0000
vn 0.0000 1.0000 0.0000
vn -1.0000 0.0000 0.0000
s off
f 218//19 212//19 211//19
f 219//19 213//19 212//19
f 220//19 214//19 213//19
f 221//19 215//19 214//19
f 222//19 216//19 215//19
f 223//19 217//19 216//19
f 204//20 198//20 197//20
f 205//20 199//20 198//20
f 206//20 200//20 199//20
f 207//20 201//20 200//20
f 208//20 202//20 201//20
f 209//20 203//20 202//20
f 197//20 191//20 190//20
f 198//20 192//20 191//20
f 199//20 193//20 192//20
f 200//20 194//20 193//20
f 201//20 195//20 194//20
f 202//20 196//20 195//20
f 189//19 219//19 218//19
f 188//19 220//19 219//19
f 187//19 221//19 220//19
f 186//19 222//19 221//19
f 185//19 223//19 222//19
f 184//19 224//19 223//19
f 190//21 188//21 189//21
f 191//21 187//21 188//21
f 192//21 186//21 187//21
f 193//21 185//21 186//21
f 194//21 184//21 185//21
f 195//21 183//21 184//21
f 203//22 210//22 217//22
f 197//23 190//23 189//23
f 209//24 208//24 215//24
f 218//19 219//19 212//19
f 219//19 220//19 213//19
f 220//19 221//19 214//19
f 221//19 222//19 215//19
f 222//19 223//19 216//19
f 223//19 224//19 217//19
f 204//20 205//20 198//20
f 205//20 206//20 199//20
f 206//20 207//20 200//20
f 207//20 208//20 201//20
f 208//20 209//20 202//20
f 209//20 210//20 203//20
f 197//20 198//20 191//20
f 198//20 199//20 192//20
f 199//20 200//20 193//20
f 200//20 201//20 194//20
f 201//20 202//20 195//20
f 202//20 203//20 196//20
f 189//19 188//19 219//19
f 188//19 187//19 220//19
f 187//19 186//19 221//19
f 186//19 185//19 222//19
f 185//19 184//19 223//19
f 184//19 183//19 224//19
f 190//21 191//21 188//21
f 191//21 192//21 187//21
f 192//21 193//21 186//21
f 193//21 194//21 185//21
f 194//21 195//21 184//21
f 195//21 196//21 183//21
f 217//22 224//22 203//22
f 224//22 183//22 203//22
f 183//22 196//22 203//22
f 189//23 218//23 197//23
f 218//23 211//23 197//23
f 211//23 204//23 197//23
f 206//24 205//24 213//24
f 205//24 204//24 212//24
f 213//24 205//24 212//24
f 204//24 211//24 212//24
f 213//24 214//24 206//24
f 214//24 215//24 207//24
f 206//24 214//24 207//24
f 208//24 207//24 215//24
f 215//24 216//24 209//24
f 216//24 217//24 210//24
f 210//24 209//24 216//24
o Cube.004_Cube.010
v -0.300000 -0.500000 -0.050000
v -0.200000 -0.500000 -0.050000
v -0.100000 -0.500000 -0.050000
v 0.000000 -0.500000 -0.050000
v 0.100000 -0.500000 -0.050000
v 0.200000 -0.500000 -0.050000
v 0.300000 -0.500000 -0.050000
v 0.300000 -0.500000 0.050000
v 0.200000 -0.500000 0.050000
v 0.100000 -0.500000 0.050000
v 0.000000 -0.500000 0.050000
v -0.100000 -0.500000 0.050000
v -0.200000 -0.500000 0.050000
v -0.300000 -0.500000 0.050000
v 0.300000 -0.300000 0.050000
v 0.300000 -0.400000 0.050000
v 0.200000 -0.300000 0.050000
v 0.200000 -0.400000 0.050000
v 0.100000 -0.300000 0.050000
v 0.100000 -0.400000 0.050000
v 0.000000 -0.300000 0.050000
v 0.000000 -0.400000 0.050000
v -0.100000 -0.300000 0.050000
v -0.100000 -0.400000 0.050000
v -0.200000 -0.300000 0.050000
v -0.200000 -0.400000 0.050000
v -0.300000 -0.300000 0.050000
v -0.300000 -0.400000 0.050000
v -0.300000 -0.300000 -0.050000
v -0.300000 -0.400000 -0.050000
v -0.200000 -0.300000 -0.050000
v -0.200000 -0.400000 -0.050000
v -0.100000 -0.300000 -0.050000
v -0.100000 -0.400000 -0.050000
v 0.000000 -0.300000 -0.050000
v 0.000000 -0.400000 -0.050000
v 0.100000 -0.300000 -0.050000
v 0.100000 -0.400000 -0.050000
v 0.200000 -0.300000 -0.050000
v 0.200000 -0.400000 -0.050000
v 0.300000 -0.300000 -0.050000
v 0.300000 -0.400000 -0.050000
vn 0.0000 0.0000 1.0000
vn 0.0000 0.0000 -1.0000
vn 0.0000 -1.0000 0.0000
vn 1.0000 0.0000 0.0000
vn -1.0000 0.0000 0.0000
vn 0.0000 1.0000 0.0000
s off
f 242//25 232//25 240//25
f 244//25 233//25 242//25
f 246//25 234//25 244//25
f 248//25 235//25 246//25
f 248//25 237//25 236//25
f 252//25 237//25 250//25
f 256//26 225//26 254//26
f 258//26 226//26 256//26
f 260//26 227//26 258//26
f 262//26 228//26 260//26
f 262//26 230//26 229//26
f 266//26 230//26 264//26
f 232//27 230//27 231//27
f 233//27 229//27 230//27
f 234//27 228//27 229//27
f 235//27 227//27 228//27
f 236//27 226//27 227//27
f 237//27 225//27 226//27
f 265//26 264//26 263//26
f 263//26 262//26 261//26
f 261//26 260//26 259//26
f 259//26 258//26 257//26
f 255//26 258//26 256//26
f 255//26 254//26 253//26
f 251//25 250//25 249//25
f 249//25 248//25 247//25
f 247//25 246//25 245//25
f 245//25 244//25 243//25
f 241//25 244//25 242//25
f 241//25 240//25 239//25
f 266//28 239//28 240//28
f 252//29 253//29 254//29
f 255//30 251//30 249//30
f 242//25 233//25 232//25
f 244//25 234//25 233//25
f 246//25 235//25 234//25
f 248//25 236//25 235//25
f 248//25 250//25 237//25
f 252//25 238//25 237//25
f 256//26 226//26 225//26
f 258//26 227//26 226//26
f 260//26 228//26 227//26
f 262//26 229//26 228//26
f 262//26 264//26 230//26
f 266//26 231//26 230//26
f 232//27 233//27 230//27
f 233//27 234//27 229//27
f 234//27 235//27 228//27
f 235//27 236//27 227//27
f 236//27 237//27 226//27
f 237//27 238//27 225//27
f 265//26 266//26 264//26
f 263//26 264//26 262//26
f 261//26 262//26 260//26
f 259//26 260//26 258//26
f 255//26 257//26 258//26
f 255//26 256//26 254//26
f 251//25 252//25 250//25
f 249//25 250//25 248//25
f 247//25 248//25 246//25
f 245//25 246//25 244//25
f 241//25 243//25 244//25
f 241//25 242//25 240//25
f 240//28 232//28 231//28
f 266//28 265//28 239//28
f 240//28 231//28 266//28
f 225//29 238//29 252//29
f 252//29 251//29 253//29
f 254//29 225//29 252//29
f 239//30 265//30 263//30
f 261//30 259//30 243//30
f 259//30 257//30 245//30
f 261//30 243//30 241//30
f 239//30 263//30 241//30
f 263//30 261//30 241//30
f 245//30 243//30 259//30
f 257//30 255//30 249//30
f 255//30 253//30 251//30
f 249//30 247//30 257//30
f 247//30 245//30 257//30
o Cylinder_Cylinder.001
v 0.270000 0.000000 -0.100000
v 0.270000 0.000000 0.100000
v 0.045000 -0.129904 -0.100000
v 0.045000 -0.129904 0.100000
v 0.045000 0.129904 -0.100000
v 0.045000 0.129904 0.100000
vn 0.5000 -0.8660 0.0000
vn -1.0000 -0.0000 0.0000
vn 0.0000 0.0000 1.0000
vn 0.5000 0.8660 0.0000
vn 0.0000 0.0000 -1.0000
s off
f 268//31 269//31 267//31
f 270//32 271//32 269//32
f 270//33 268//33 272//33
f 272//34 267//34 271//34
f 267//35 269//35 271//35
f 268//31 270//31 269//31
f 270//32 272//32 271//32
f 272//34 268//34 267//34
o Cylinder.001_Cylinder.004
v -0.270000 -0.000000 -0.100000
v -0.270000 -0.000000 0.100000
v -0.045000 0.129904 -0.100000
v -0.045000 0.129904 0.100000
v -0.045000 -0.129904 -0.100000
v -0.045000 -0.129904 0.100000
vn -0.5000 0.8660 0.0000
vn 1.0000 0.0000 0.0000
vn -0.0000 0.0000 1.0000
vn -0.5000 -0.8660 0.0000
vn -0.0000 0.0000 -1.0000
s off
f 274//36 275//36 273//36
f 276//37 277//37 275//37
f 276//38 274//38 278//38
f 278//39 273//39 277//39
f 273//40 275//40 277//40
f 274//36 276//36 275//36
f 276//37 278//37 277//37
f 278//39 274//39 273//39
