# Blender v3.0.0 OBJ File: 'turret.blend'
# www.blender.org
o Cone
v 0.000000 0.200000 -0.500000
v 0.141421 0.141421 -0.500000
v 0.200000 -0.000000 -0.500000
v 0.141421 -0.141421 -0.500000
v -0.000000 -0.200000 -0.500000
v -0.141421 -0.141421 -0.500000
v -0.200000 0.000000 -0.500000
v -0.141421 0.141421 -0.500000
v 0.000000 0.000000 0.500000
vn 0.3763 0.9085 0.1817
vn 0.9085 0.3763 0.1817
vn 0.9085 -0.3763 0.1817
vn 0.3763 -0.9085 0.1817
vn -0.3763 -0.9085 0.1817
vn -0.9085 -0.3763 0.1817
vn -0.0000 0.0000 -1.0000
vn -0.9085 0.3763 0.1817
vn -0.3763 0.9085 0.1817
s off
f 1//1 9//1 2//1
f 2//2 9//2 3//2
f 3//3 9//3 4//3
f 4//4 9//4 5//4
f 5//5 9//5 6//5
f 6//6 9//6 7//6
f 8//7 2//7 4//7
f 7//8 9//8 8//8
f 8//9 9//9 1//9
f 8//7 1//7 2//7
f 2//7 3//7 4//7
f 4//7 5//7 8//7
f 5//7 6//7 8//7
f 6//7 7//7 8//7
o Torus.002
v 0.400000 0.000000 0.000000
v 0.300000 0.000000 0.100000
v 0.200000 0.000000 0.000000
v 0.300000 0.000000 -0.100000
v 0.282843 0.282843 0.000000
v 0.212132 0.212132 0.100000
v 0.141421 0.141421 0.000000
v 0.212132 0.212132 -0.100000
v 0.000000 0.400000 0.000000
v 0.000000 0.300000 0.100000
v 0.000000 0.200000 0.000000
v 0.000000 0.300000 -0.100000
v -0.282843 0.282843 0.000000
v -0.212132 0.212132 0.100000
v -0.141421 0.141421 0.000000
v -0.212132 0.212132 -0.100000
v -0.400000 0.000000 0.000000
v -0.300000 0.000000 0.100000
v -0.200000 0.000000 0.000000
v -0.300000 0.000000 -0.100000
v -0.282843 -0.282843 0.000000
v -0.212132 -0.212132 0.100000
v -0.141421 -0.141421 0.000000
v -0.212132 -0.212132 -0.100000
v 0.000000 -0.400000 0.000000
v 0.000000 -0.300000 0.100000
v 0.000000 -0.200000 0.000000
v 0.000000 -0.300000 -0.100000
v 0.282843 -0.282843 0.000000
v 0.212132 -0.212132 0.100000
v 0.141421 -0.141421 0.000000
v 0.212132 -0.212132 -0.100000
vn 0.6786 0.2811 0.6786
vn -0.6786 -0.2811 0.6786
vn -0.6786 -0.2811 -0.6786
vn 0.6786 0.2811 -0.6786
vn 0.2811 0.6786 0.6786
vn -0.2811 -0.6786 0.6786
vn -0.2811 -0.6786 -0.6786
vn 0.2811 0.6786 -0.6786
vn -0.2811 0.6786 0.6786
vn 0.2811 -0.6786 0.6786
vn 0.2811 -0.6786 -0.6786
vn -0.2811 0.6786 -0.6786
vn -0.6786 0.2811 0.6786
vn 0.6786 -0.2811 0.6786
vn 0.6786 -0.2811 -0.6786
vn -0.6786 0.2811 -0.6786
s off
f 14//10 11//10 10//10
f 15//11 12//11 11//11
f 16//12 13//12 12//12
f 13//13 14//13 10//13
f 14//14 19//14 15//14
f 19//15 16//15 15//15
f 20//16 17//16 16//16
f 17//17 18//17 14//17
f 22//18 19//18 18//18
f 23//19 20//19 19//19
f 24//20 21//20 20//20
f 25//21 18//21 21//21
f 22//22 27//22 23//22
f 27//23 24//23 23//23
f 24//24 29//24 25//24
f 25//25 26//25 22//25
f 30//11 27//11 26//11
f 27//10 32//10 28//10
f 32//13 29//13 28//13
f 29//12 30//12 26//12
f 34//15 31//15 30//15
f 35//14 32//14 31//14
f 36//17 33//17 32//17
f 37//16 30//16 33//16
f 34//19 39//19 35//19
f 35//18 40//18 36//18
f 40//21 37//21 36//21
f 41//20 34//20 37//20
f 10//23 39//23 38//23
f 11//22 40//22 39//22
f 12//25 41//25 40//25
f 13//24 38//24 41//24
f 14//10 15//10 11//10
f 15//11 16//11 12//11
f 16//12 17//12 13//12
f 13//13 17//13 14//13
f 14//14 18//14 19//14
f 19//15 20//15 16//15
f 20//16 21//16 17//16
f 17//17 21//17 18//17
f 22//18 23//18 19//18
f 23//19 24//19 20//19
f 24//20 25//20 21//20
f 25//21 22//21 18//21
f 22//22 26//22 27//22
f 27//23 28//23 24//23
f 24//24 28//24 29//24
f 25//25 29//25 26//25
f 30//11 31//11 27//11
f 27//10 31//10 32//10
f 32//13 33//13 29//13
f 29//12 33//12 30//12
f 34//15 35//15 31//15
f 35//14 36//14 32//14
f 36//17 37//17 33//17
f 37//16 34//16 30//16
f 34//19 38//19 39//19
f 35//18 39//18 40//18
f 40//21 41//21 37//21
f 41//20 38//20 34//20
f 10//23 11//23 39//23
f 11//22 12//22 40//22
f 12//25 13//25 41//25
f 13//24 10//24 38//24
